<mxfile host="app.diagrams.net" modified="2021-01-26T08:56:55.999Z" agent="5.0 (Macintosh; Intel Mac OS X 10_15_7) AppleWebKit/537.36 (KHTML, like Gecko) Chrome/87.0.4280.141 Safari/537.36" etag="QDmSCnbhStUzP-_AAeMR" version="14.1.9" type="github">
  <diagram id="02vn0gyc8lEW_DT5LCfa" name="Page-1">
    <mxGraphModel dx="1779" dy="1020" grid="1" gridSize="10" guides="1" tooltips="1" connect="1" arrows="1" fold="1" page="1" pageScale="1" pageWidth="827" pageHeight="1169" math="0" shadow="0">
      <root>
        <mxCell id="0" />
        <mxCell id="1" parent="0" />
        <mxCell id="3h_Jgdluma76NgPUxrdL-4" style="edgeStyle=orthogonalEdgeStyle;rounded=0;orthogonalLoop=1;jettySize=auto;html=1;exitX=1;exitY=0.5;exitDx=0;exitDy=0;entryX=0;entryY=0.5;entryDx=0;entryDy=0;" parent="1" source="3h_Jgdluma76NgPUxrdL-2" target="3h_Jgdluma76NgPUxrdL-3" edge="1">
          <mxGeometry relative="1" as="geometry" />
        </mxCell>
        <mxCell id="3h_Jgdluma76NgPUxrdL-2" value="source" style="ellipse;whiteSpace=wrap;html=1;aspect=fixed;fillColor=#FFB570;strokeColor=none;" parent="1" vertex="1">
          <mxGeometry x="120" y="150" width="80" height="80" as="geometry" />
        </mxCell>
        <mxCell id="3h_Jgdluma76NgPUxrdL-11" style="edgeStyle=orthogonalEdgeStyle;rounded=0;orthogonalLoop=1;jettySize=auto;html=1;exitX=1;exitY=0.5;exitDx=0;exitDy=0;" parent="1" source="3h_Jgdluma76NgPUxrdL-3" target="3h_Jgdluma76NgPUxrdL-6" edge="1">
          <mxGeometry relative="1" as="geometry" />
        </mxCell>
        <mxCell id="3h_Jgdluma76NgPUxrdL-3" value="stream Edge 输入" style="rounded=0;whiteSpace=wrap;html=1;fillColor=#D5E8D4;strokeColor=none;" parent="1" vertex="1">
          <mxGeometry x="260" y="175" width="80" height="30" as="geometry" />
        </mxCell>
        <mxCell id="3h_Jgdluma76NgPUxrdL-16" style="edgeStyle=orthogonalEdgeStyle;rounded=0;orthogonalLoop=1;jettySize=auto;html=1;exitX=1;exitY=0.5;exitDx=0;exitDy=0;entryX=0;entryY=0.5;entryDx=0;entryDy=0;" parent="1" source="3h_Jgdluma76NgPUxrdL-6" target="3h_Jgdluma76NgPUxrdL-13" edge="1">
          <mxGeometry relative="1" as="geometry" />
        </mxCell>
        <mxCell id="3h_Jgdluma76NgPUxrdL-6" value="Flat Map" style="ellipse;whiteSpace=wrap;html=1;aspect=fixed;fillColor=#FFB570;strokeColor=none;" parent="1" vertex="1">
          <mxGeometry x="390" y="150" width="80" height="80" as="geometry" />
        </mxCell>
        <mxCell id="3h_Jgdluma76NgPUxrdL-18" style="edgeStyle=orthogonalEdgeStyle;rounded=0;orthogonalLoop=1;jettySize=auto;html=1;exitX=1;exitY=0.5;exitDx=0;exitDy=0;entryX=0;entryY=0.5;entryDx=0;entryDy=0;" parent="1" source="3h_Jgdluma76NgPUxrdL-8" target="3h_Jgdluma76NgPUxrdL-14" edge="1">
          <mxGeometry relative="1" as="geometry" />
        </mxCell>
        <mxCell id="3h_Jgdluma76NgPUxrdL-8" value="Keyd&amp;nbsp;&lt;br&gt;Aggreation" style="ellipse;whiteSpace=wrap;html=1;aspect=fixed;fillColor=#FFB570;strokeColor=none;" parent="1" vertex="1">
          <mxGeometry x="660" y="150" width="80" height="80" as="geometry" />
        </mxCell>
        <mxCell id="3h_Jgdluma76NgPUxrdL-9" value="Stream Node" style="text;html=1;align=center;verticalAlign=middle;resizable=0;points=[];autosize=1;" parent="1" vertex="1">
          <mxGeometry x="115" y="120" width="90" height="20" as="geometry" />
        </mxCell>
        <mxCell id="3h_Jgdluma76NgPUxrdL-17" style="edgeStyle=orthogonalEdgeStyle;rounded=0;orthogonalLoop=1;jettySize=auto;html=1;exitX=1;exitY=0.5;exitDx=0;exitDy=0;entryX=0;entryY=0.5;entryDx=0;entryDy=0;" parent="1" source="3h_Jgdluma76NgPUxrdL-13" target="3h_Jgdluma76NgPUxrdL-8" edge="1">
          <mxGeometry relative="1" as="geometry" />
        </mxCell>
        <mxCell id="3h_Jgdluma76NgPUxrdL-13" value="stream Edge 输入" style="rounded=0;whiteSpace=wrap;html=1;fillColor=#D5E8D4;strokeColor=none;" parent="1" vertex="1">
          <mxGeometry x="520" y="175" width="80" height="30" as="geometry" />
        </mxCell>
        <mxCell id="3h_Jgdluma76NgPUxrdL-22" style="edgeStyle=orthogonalEdgeStyle;rounded=0;orthogonalLoop=1;jettySize=auto;html=1;exitX=1;exitY=0.5;exitDx=0;exitDy=0;entryX=0;entryY=0.5;entryDx=0;entryDy=0;" parent="1" source="3h_Jgdluma76NgPUxrdL-14" edge="1">
          <mxGeometry relative="1" as="geometry">
            <mxPoint x="950" y="190" as="targetPoint" />
          </mxGeometry>
        </mxCell>
        <mxCell id="3h_Jgdluma76NgPUxrdL-14" value="stream Edge 输入" style="rounded=0;whiteSpace=wrap;html=1;fillColor=#D5E8D4;strokeColor=none;" parent="1" vertex="1">
          <mxGeometry x="800" y="175" width="80" height="30" as="geometry" />
        </mxCell>
        <mxCell id="3h_Jgdluma76NgPUxrdL-24" value="client" style="rounded=0;whiteSpace=wrap;html=1;fillColor=#dae8fc;rotation=0;strokeColor=#6c8ebf;" parent="1" vertex="1">
          <mxGeometry x="20" y="150" width="70" height="210" as="geometry" />
        </mxCell>
        <mxCell id="3h_Jgdluma76NgPUxrdL-26" style="edgeStyle=orthogonalEdgeStyle;rounded=0;orthogonalLoop=1;jettySize=auto;html=1;exitX=1;exitY=0.5;exitDx=0;exitDy=0;entryX=0;entryY=0.5;entryDx=0;entryDy=0;" parent="1" source="3h_Jgdluma76NgPUxrdL-27" target="3h_Jgdluma76NgPUxrdL-29" edge="1">
          <mxGeometry relative="1" as="geometry" />
        </mxCell>
        <mxCell id="3h_Jgdluma76NgPUxrdL-27" value="source" style="ellipse;whiteSpace=wrap;html=1;aspect=fixed;fillColor=#FFB570;strokeColor=none;" parent="1" vertex="1">
          <mxGeometry x="120" y="297.5" width="80" height="80" as="geometry" />
        </mxCell>
        <mxCell id="3h_Jgdluma76NgPUxrdL-28" style="edgeStyle=orthogonalEdgeStyle;rounded=0;orthogonalLoop=1;jettySize=auto;html=1;exitX=1;exitY=0.5;exitDx=0;exitDy=0;" parent="1" source="3h_Jgdluma76NgPUxrdL-29" target="3h_Jgdluma76NgPUxrdL-31" edge="1">
          <mxGeometry relative="1" as="geometry" />
        </mxCell>
        <mxCell id="3h_Jgdluma76NgPUxrdL-29" value="stream Edge 输入" style="rounded=0;whiteSpace=wrap;html=1;fillColor=#D5E8D4;strokeColor=none;" parent="1" vertex="1">
          <mxGeometry x="445" y="322.5" width="80" height="30" as="geometry" />
        </mxCell>
        <mxCell id="3h_Jgdluma76NgPUxrdL-30" style="edgeStyle=orthogonalEdgeStyle;rounded=0;orthogonalLoop=1;jettySize=auto;html=1;exitX=1;exitY=0.5;exitDx=0;exitDy=0;entryX=0;entryY=0.5;entryDx=0;entryDy=0;" parent="1" source="3h_Jgdluma76NgPUxrdL-31" target="3h_Jgdluma76NgPUxrdL-36" edge="1">
          <mxGeometry relative="1" as="geometry" />
        </mxCell>
        <mxCell id="3h_Jgdluma76NgPUxrdL-31" value="Flat Map" style="ellipse;whiteSpace=wrap;html=1;aspect=fixed;fillColor=#FFB570;strokeColor=none;" parent="1" vertex="1">
          <mxGeometry x="575" y="297.5" width="80" height="80" as="geometry" />
        </mxCell>
        <mxCell id="3h_Jgdluma76NgPUxrdL-34" value="Job vertx" style="text;html=1;align=center;verticalAlign=middle;resizable=0;points=[];autosize=1;" parent="1" vertex="1">
          <mxGeometry x="130" y="270" width="60" height="20" as="geometry" />
        </mxCell>
        <mxCell id="3h_Jgdluma76NgPUxrdL-35" style="edgeStyle=orthogonalEdgeStyle;rounded=0;orthogonalLoop=1;jettySize=auto;html=1;exitX=1;exitY=0.5;exitDx=0;exitDy=0;entryX=0;entryY=0.5;entryDx=0;entryDy=0;" parent="1" source="3h_Jgdluma76NgPUxrdL-57" edge="1">
          <mxGeometry relative="1" as="geometry">
            <mxPoint x="1055" y="337.4999999999998" as="targetPoint" />
          </mxGeometry>
        </mxCell>
        <mxCell id="3h_Jgdluma76NgPUxrdL-36" value="stream Edge 输入" style="rounded=0;whiteSpace=wrap;html=1;fillColor=#D5E8D4;strokeColor=none;" parent="1" vertex="1">
          <mxGeometry x="725" y="322.5" width="80" height="30" as="geometry" />
        </mxCell>
        <mxCell id="3h_Jgdluma76NgPUxrdL-39" value="Keyd&amp;nbsp;&lt;br&gt;Aggreation&lt;br&gt;--&amp;gt; sink" style="ellipse;whiteSpace=wrap;html=1;aspect=fixed;fillColor=#FFB570;strokeColor=none;" parent="1" vertex="1">
          <mxGeometry x="1055" y="297.5" width="80" height="80" as="geometry" />
        </mxCell>
        <mxCell id="3h_Jgdluma76NgPUxrdL-54" value="intermediate DateSet&lt;br&gt;中间 输出" style="rounded=0;whiteSpace=wrap;html=1;fillColor=#D5E8D4;" parent="1" vertex="1">
          <mxGeometry x="237.5" y="322.5" width="150" height="30" as="geometry" />
        </mxCell>
        <mxCell id="3h_Jgdluma76NgPUxrdL-57" value="intermediate DateSet&lt;br&gt;中间 输出" style="rounded=0;whiteSpace=wrap;html=1;fillColor=#D5E8D4;" parent="1" vertex="1">
          <mxGeometry x="835" y="322.5" width="150" height="30" as="geometry" />
        </mxCell>
        <mxCell id="3h_Jgdluma76NgPUxrdL-58" style="edgeStyle=orthogonalEdgeStyle;rounded=0;orthogonalLoop=1;jettySize=auto;html=1;exitX=1;exitY=0.5;exitDx=0;exitDy=0;entryX=0;entryY=0.5;entryDx=0;entryDy=0;" parent="1" source="3h_Jgdluma76NgPUxrdL-36" target="3h_Jgdluma76NgPUxrdL-57" edge="1">
          <mxGeometry relative="1" as="geometry">
            <mxPoint x="805" y="337.4999999999998" as="sourcePoint" />
            <mxPoint x="985" y="337.4999999999998" as="targetPoint" />
          </mxGeometry>
        </mxCell>
        <mxCell id="3h_Jgdluma76NgPUxrdL-61" value="sink&amp;nbsp;&lt;br&gt;输出" style="ellipse;whiteSpace=wrap;html=1;aspect=fixed;fillColor=#FFB570;strokeColor=none;" parent="1" vertex="1">
          <mxGeometry x="950" y="150" width="80" height="80" as="geometry" />
        </mxCell>
        <mxCell id="3h_Jgdluma76NgPUxrdL-63" value="" style="shape=flexArrow;endArrow=classic;html=1;fillColor=#f5f5f5;strokeColor=#666666;" parent="1" edge="1">
          <mxGeometry width="50" height="50" relative="1" as="geometry">
            <mxPoint x="230" y="222.5" as="sourcePoint" />
            <mxPoint x="230" y="290" as="targetPoint" />
          </mxGeometry>
        </mxCell>
        <mxCell id="3h_Jgdluma76NgPUxrdL-64" value="&lt;font color=&quot;#ff6666&quot;&gt;Stream Graph&lt;br&gt;逻辑执行图&lt;/font&gt;" style="text;html=1;align=center;verticalAlign=middle;resizable=0;points=[];autosize=1;" parent="1" vertex="1">
          <mxGeometry x="510" y="110" width="90" height="30" as="geometry" />
        </mxCell>
        <mxCell id="3h_Jgdluma76NgPUxrdL-65" value="&lt;font color=&quot;#ff6666&quot;&gt;Job Graph&lt;br&gt;工作执行图&lt;/font&gt;" style="text;html=1;align=center;verticalAlign=middle;resizable=0;points=[];autosize=1;" parent="1" vertex="1">
          <mxGeometry x="515" y="250" width="80" height="30" as="geometry" />
        </mxCell>
        <mxCell id="3h_Jgdluma76NgPUxrdL-66" value="job&lt;br&gt;manager" style="rounded=0;whiteSpace=wrap;html=1;fillColor=#dae8fc;rotation=0;strokeColor=#6c8ebf;" parent="1" vertex="1">
          <mxGeometry x="20" y="450" width="67.5" height="213" as="geometry" />
        </mxCell>
        <mxCell id="3h_Jgdluma76NgPUxrdL-69" style="edgeStyle=orthogonalEdgeStyle;rounded=0;orthogonalLoop=1;jettySize=auto;html=1;exitX=0.1;exitY=0.5;exitDx=0;exitDy=0;exitPerimeter=0;" parent="1" source="3h_Jgdluma76NgPUxrdL-68" target="3h_Jgdluma76NgPUxrdL-39" edge="1">
          <mxGeometry relative="1" as="geometry">
            <Array as="points">
              <mxPoint x="835" y="280" />
              <mxPoint x="1095" y="280" />
            </Array>
          </mxGeometry>
        </mxCell>
        <mxCell id="3h_Jgdluma76NgPUxrdL-70" value="合并" style="edgeLabel;html=1;align=center;verticalAlign=middle;resizable=0;points=[];" parent="3h_Jgdluma76NgPUxrdL-69" vertex="1" connectable="0">
          <mxGeometry x="0.5791" y="3" relative="1" as="geometry">
            <mxPoint as="offset" />
          </mxGeometry>
        </mxCell>
        <mxCell id="3h_Jgdluma76NgPUxrdL-68" value="" style="shape=curlyBracket;whiteSpace=wrap;html=1;rounded=1;fillColor=#D5E8D4;rotation=-90;" parent="1" vertex="1">
          <mxGeometry x="825" y="95" width="20" height="310" as="geometry" />
        </mxCell>
        <mxCell id="3h_Jgdluma76NgPUxrdL-71" value="合并StreamNode 提高执行效率" style="text;html=1;align=center;verticalAlign=middle;resizable=0;points=[];autosize=1;" parent="1" vertex="1">
          <mxGeometry x="647" y="260" width="180" height="20" as="geometry" />
        </mxCell>
        <mxCell id="3h_Jgdluma76NgPUxrdL-72" value="parallelliism =1 并行度" style="text;html=1;align=center;verticalAlign=middle;resizable=0;points=[];autosize=1;" parent="1" vertex="1">
          <mxGeometry x="107.5" y="377.5" width="130" height="20" as="geometry" />
        </mxCell>
        <mxCell id="3h_Jgdluma76NgPUxrdL-73" value="&lt;span style=&quot;color: rgb(0 , 0 , 0) ; font-family: &amp;#34;helvetica&amp;#34; ; font-size: 12px ; font-style: normal ; font-weight: 400 ; letter-spacing: normal ; text-align: center ; text-indent: 0px ; text-transform: none ; word-spacing: 0px ; background-color: rgb(248 , 249 , 250) ; display: inline ; float: none&quot;&gt;parallelliism =2&amp;nbsp; 并行度&lt;/span&gt;" style="text;whiteSpace=wrap;html=1;" parent="1" vertex="1">
          <mxGeometry x="560" y="377.5" width="140" height="30" as="geometry" />
        </mxCell>
        <mxCell id="3h_Jgdluma76NgPUxrdL-74" value="&lt;span style=&quot;color: rgb(0 , 0 , 0) ; font-family: &amp;#34;helvetica&amp;#34; ; font-size: 12px ; font-style: normal ; font-weight: 400 ; letter-spacing: normal ; text-align: center ; text-indent: 0px ; text-transform: none ; word-spacing: 0px ; background-color: rgb(248 , 249 , 250) ; display: inline ; float: none&quot;&gt;parallelliism =2&amp;nbsp; 并行度&lt;/span&gt;" style="text;whiteSpace=wrap;html=1;" parent="1" vertex="1">
          <mxGeometry x="1010" y="390" width="140" height="30" as="geometry" />
        </mxCell>
        <mxCell id="3h_Jgdluma76NgPUxrdL-75" value="" style="rounded=0;whiteSpace=wrap;html=1;fillColor=#fff2cc;strokeColor=#d6b656;" parent="1" vertex="1">
          <mxGeometry x="115" y="440" width="105" height="230" as="geometry" />
        </mxCell>
        <mxCell id="3h_Jgdluma76NgPUxrdL-94" style="edgeStyle=orthogonalEdgeStyle;rounded=0;orthogonalLoop=1;jettySize=auto;html=1;exitX=1;exitY=0.5;exitDx=0;exitDy=0;entryX=0;entryY=0.5;entryDx=0;entryDy=0;fillColor=#ffffff;" parent="1" source="3h_Jgdluma76NgPUxrdL-76" target="3h_Jgdluma76NgPUxrdL-79" edge="1">
          <mxGeometry relative="1" as="geometry" />
        </mxCell>
        <mxCell id="3h_Jgdluma76NgPUxrdL-76" value="source" style="ellipse;whiteSpace=wrap;html=1;aspect=fixed;fillColor=#FFB570;strokeColor=none;" parent="1" vertex="1">
          <mxGeometry x="130" y="505" width="80" height="80" as="geometry" />
        </mxCell>
        <mxCell id="3h_Jgdluma76NgPUxrdL-77" value="" style="rounded=0;whiteSpace=wrap;html=1;fillColor=#cce5ff;strokeColor=#36393d;" parent="1" vertex="1">
          <mxGeometry x="309" y="440" width="105" height="230" as="geometry" />
        </mxCell>
        <mxCell id="3h_Jgdluma76NgPUxrdL-78" value="&lt;span&gt;intermediate Result&lt;/span&gt;" style="text;html=1;align=center;verticalAlign=middle;resizable=0;points=[];autosize=1;" parent="1" vertex="1">
          <mxGeometry x="309" y="420" width="120" height="20" as="geometry" />
        </mxCell>
        <mxCell id="3h_Jgdluma76NgPUxrdL-85" style="edgeStyle=orthogonalEdgeStyle;rounded=0;orthogonalLoop=1;jettySize=auto;html=1;exitX=1;exitY=0.5;exitDx=0;exitDy=0;fillColor=#ffffff;entryX=0;entryY=0.5;entryDx=0;entryDy=0;" parent="1" source="3h_Jgdluma76NgPUxrdL-79" target="3h_Jgdluma76NgPUxrdL-86" edge="1">
          <mxGeometry relative="1" as="geometry">
            <mxPoint x="440" y="509.9999999999998" as="targetPoint" />
          </mxGeometry>
        </mxCell>
        <mxCell id="3h_Jgdluma76NgPUxrdL-89" style="edgeStyle=orthogonalEdgeStyle;rounded=0;orthogonalLoop=1;jettySize=auto;html=1;exitX=1;exitY=0.5;exitDx=0;exitDy=0;entryX=0;entryY=0.5;entryDx=0;entryDy=0;fillColor=#ffffff;" parent="1" source="3h_Jgdluma76NgPUxrdL-79" target="3h_Jgdluma76NgPUxrdL-88" edge="1">
          <mxGeometry relative="1" as="geometry" />
        </mxCell>
        <mxCell id="3h_Jgdluma76NgPUxrdL-79" value="intermediate Result&lt;br&gt;partion" style="rounded=0;whiteSpace=wrap;html=1;fillColor=#dae8fc;strokeColor=#6c8ebf;" parent="1" vertex="1">
          <mxGeometry x="324" y="520" width="75" height="50" as="geometry" />
        </mxCell>
        <mxCell id="3h_Jgdluma76NgPUxrdL-81" value="结果分片" style="text;html=1;align=center;verticalAlign=middle;resizable=0;points=[];autosize=1;" parent="1" vertex="1">
          <mxGeometry x="331.5" y="585" width="60" height="20" as="geometry" />
        </mxCell>
        <mxCell id="3h_Jgdluma76NgPUxrdL-82" value="" style="rounded=0;whiteSpace=wrap;html=1;fillColor=#fff2cc;strokeColor=#d6b656;" parent="1" vertex="1">
          <mxGeometry x="550" y="441.5" width="110" height="238.5" as="geometry" />
        </mxCell>
        <mxCell id="3h_Jgdluma76NgPUxrdL-104" style="edgeStyle=orthogonalEdgeStyle;rounded=0;orthogonalLoop=1;jettySize=auto;html=1;exitX=1;exitY=0.5;exitDx=0;exitDy=0;entryX=0;entryY=0.5;entryDx=0;entryDy=0;fillColor=#ffffff;shadow=0;sketch=0;" parent="1" source="3h_Jgdluma76NgPUxrdL-83" target="3h_Jgdluma76NgPUxrdL-99" edge="1">
          <mxGeometry relative="1" as="geometry" />
        </mxCell>
        <mxCell id="3h_Jgdluma76NgPUxrdL-83" value="Flat Map" style="ellipse;whiteSpace=wrap;html=1;aspect=fixed;fillColor=#FFB570;strokeColor=none;" parent="1" vertex="1">
          <mxGeometry x="567" y="450" width="80" height="80" as="geometry" />
        </mxCell>
        <mxCell id="3h_Jgdluma76NgPUxrdL-105" style="edgeStyle=orthogonalEdgeStyle;rounded=0;orthogonalLoop=1;jettySize=auto;html=1;exitX=1;exitY=0.5;exitDx=0;exitDy=0;fillColor=#ffffff;" parent="1" source="3h_Jgdluma76NgPUxrdL-84" target="3h_Jgdluma76NgPUxrdL-101" edge="1">
          <mxGeometry relative="1" as="geometry" />
        </mxCell>
        <mxCell id="3h_Jgdluma76NgPUxrdL-84" value="Flat Map" style="ellipse;whiteSpace=wrap;html=1;aspect=fixed;fillColor=#FFB570;strokeColor=none;" parent="1" vertex="1">
          <mxGeometry x="565" y="550" width="80" height="80" as="geometry" />
        </mxCell>
        <mxCell id="3h_Jgdluma76NgPUxrdL-90" style="edgeStyle=orthogonalEdgeStyle;rounded=0;orthogonalLoop=1;jettySize=auto;html=1;exitX=1;exitY=0.5;exitDx=0;exitDy=0;entryX=0;entryY=0.5;entryDx=0;entryDy=0;fillColor=#ffffff;" parent="1" source="3h_Jgdluma76NgPUxrdL-86" target="3h_Jgdluma76NgPUxrdL-83" edge="1">
          <mxGeometry relative="1" as="geometry" />
        </mxCell>
        <mxCell id="3h_Jgdluma76NgPUxrdL-86" value="Execution&amp;nbsp; &amp;nbsp;Edge" style="rounded=0;whiteSpace=wrap;html=1;fillColor=#D5E8D4;strokeColor=none;" parent="1" vertex="1">
          <mxGeometry x="445" y="475" width="80" height="30" as="geometry" />
        </mxCell>
        <mxCell id="3h_Jgdluma76NgPUxrdL-91" style="edgeStyle=orthogonalEdgeStyle;rounded=0;orthogonalLoop=1;jettySize=auto;html=1;exitX=1;exitY=0.5;exitDx=0;exitDy=0;fillColor=#ffffff;" parent="1" source="3h_Jgdluma76NgPUxrdL-88" target="3h_Jgdluma76NgPUxrdL-84" edge="1">
          <mxGeometry relative="1" as="geometry" />
        </mxCell>
        <mxCell id="3h_Jgdluma76NgPUxrdL-88" value="Execution&amp;nbsp; &amp;nbsp;Edge" style="rounded=0;whiteSpace=wrap;html=1;fillColor=#D5E8D4;strokeColor=none;" parent="1" vertex="1">
          <mxGeometry x="445" y="575" width="80" height="30" as="geometry" />
        </mxCell>
        <mxCell id="3h_Jgdluma76NgPUxrdL-92" value="Execution Job Vertex" style="text;html=1;align=center;verticalAlign=middle;resizable=0;points=[];autosize=1;" parent="1" vertex="1">
          <mxGeometry x="102.5" y="420" width="130" height="20" as="geometry" />
        </mxCell>
        <mxCell id="3h_Jgdluma76NgPUxrdL-95" value="" style="rounded=0;whiteSpace=wrap;html=1;fillColor=#cce5ff;strokeColor=#36393d;" parent="1" vertex="1">
          <mxGeometry x="750" y="440" width="100" height="240" as="geometry" />
        </mxCell>
        <mxCell id="3h_Jgdluma76NgPUxrdL-96" value="&lt;span&gt;intermediate Result&lt;/span&gt;" style="text;html=1;align=center;verticalAlign=middle;resizable=0;points=[];autosize=1;" parent="1" vertex="1">
          <mxGeometry x="750" y="420" width="120" height="20" as="geometry" />
        </mxCell>
        <mxCell id="3h_Jgdluma76NgPUxrdL-99" value="intermediate Result&lt;br&gt;partion" style="rounded=0;whiteSpace=wrap;html=1;fillColor=#dae8fc;strokeColor=#6c8ebf;" parent="1" vertex="1">
          <mxGeometry x="762.5" y="465" width="75" height="50" as="geometry" />
        </mxCell>
        <mxCell id="3h_Jgdluma76NgPUxrdL-100" value="结果分片" style="text;html=1;align=center;verticalAlign=middle;resizable=0;points=[];autosize=1;" parent="1" vertex="1">
          <mxGeometry x="770" y="614.25" width="60" height="20" as="geometry" />
        </mxCell>
        <mxCell id="3h_Jgdluma76NgPUxrdL-101" value="intermediate Result&lt;br&gt;partion" style="rounded=0;whiteSpace=wrap;html=1;fillColor=#dae8fc;strokeColor=#6c8ebf;" parent="1" vertex="1">
          <mxGeometry x="762.5" y="565" width="75" height="50" as="geometry" />
        </mxCell>
        <mxCell id="3h_Jgdluma76NgPUxrdL-111" value="" style="rounded=0;whiteSpace=wrap;html=1;fillColor=#fff2cc;strokeColor=#d6b656;" parent="1" vertex="1">
          <mxGeometry x="1010" y="435.75" width="120" height="250" as="geometry" />
        </mxCell>
        <mxCell id="3h_Jgdluma76NgPUxrdL-112" value="&lt;span&gt;Keyd&amp;nbsp;&lt;/span&gt;&lt;br&gt;&lt;span&gt;Aggreation&lt;/span&gt;&lt;br&gt;&lt;span&gt;--&amp;gt; sink&lt;/span&gt;" style="ellipse;whiteSpace=wrap;html=1;aspect=fixed;fillColor=#ffcc99;strokeColor=none;" parent="1" vertex="1">
          <mxGeometry x="1030" y="460.75" width="80" height="80" as="geometry" />
        </mxCell>
        <mxCell id="3h_Jgdluma76NgPUxrdL-113" value="&lt;span&gt;Keyd&amp;nbsp;&lt;/span&gt;&lt;br&gt;&lt;span&gt;Aggreation&lt;/span&gt;&lt;br&gt;&lt;span&gt;--&amp;gt; sink&lt;/span&gt;" style="ellipse;whiteSpace=wrap;html=1;aspect=fixed;fillColor=#ffcc99;strokeColor=none;" parent="1" vertex="1">
          <mxGeometry x="1030" y="565.75" width="80" height="80" as="geometry" />
        </mxCell>
        <mxCell id="3h_Jgdluma76NgPUxrdL-116" value="Execution&amp;nbsp; &amp;nbsp;Edge" style="rounded=0;whiteSpace=wrap;html=1;fillColor=#D5E8D4;strokeColor=none;" parent="1" vertex="1">
          <mxGeometry x="895" y="460.75" width="75" height="30" as="geometry" />
        </mxCell>
        <mxCell id="3h_Jgdluma76NgPUxrdL-117" value="Execution&amp;nbsp; &amp;nbsp;Edge" style="rounded=0;whiteSpace=wrap;html=1;fillColor=#D5E8D4;strokeColor=none;" parent="1" vertex="1">
          <mxGeometry x="890" y="515" width="80" height="30" as="geometry" />
        </mxCell>
        <mxCell id="3h_Jgdluma76NgPUxrdL-118" value="Execution&amp;nbsp; &amp;nbsp;Edge" style="rounded=0;whiteSpace=wrap;html=1;fillColor=#D5E8D4;strokeColor=none;" parent="1" vertex="1">
          <mxGeometry x="890" y="580" width="80" height="30" as="geometry" />
        </mxCell>
        <mxCell id="3h_Jgdluma76NgPUxrdL-120" value="Execution&amp;nbsp; &amp;nbsp;Edge" style="rounded=0;whiteSpace=wrap;html=1;fillColor=#D5E8D4;strokeColor=none;" parent="1" vertex="1">
          <mxGeometry x="890" y="634.25" width="80" height="30" as="geometry" />
        </mxCell>
        <mxCell id="3h_Jgdluma76NgPUxrdL-126" value="" style="endArrow=classic;html=1;shadow=0;fillColor=#ffffff;entryX=0;entryY=0.25;entryDx=0;entryDy=0;" parent="1" target="3h_Jgdluma76NgPUxrdL-116" edge="1">
          <mxGeometry width="50" height="50" relative="1" as="geometry">
            <mxPoint x="837.5" y="491.5" as="sourcePoint" />
            <mxPoint x="887.5" y="441.5" as="targetPoint" />
          </mxGeometry>
        </mxCell>
        <mxCell id="3h_Jgdluma76NgPUxrdL-127" value="" style="endArrow=classic;html=1;shadow=0;fillColor=#ffffff;entryX=0;entryY=0.5;entryDx=0;entryDy=0;" parent="1" target="3h_Jgdluma76NgPUxrdL-118" edge="1">
          <mxGeometry width="50" height="50" relative="1" as="geometry">
            <mxPoint x="835" y="490.75" as="sourcePoint" />
            <mxPoint x="887.5" y="540.7499999999998" as="targetPoint" />
            <Array as="points">
              <mxPoint x="845" y="500.75" />
            </Array>
          </mxGeometry>
        </mxCell>
        <mxCell id="3h_Jgdluma76NgPUxrdL-128" value="" style="endArrow=classic;html=1;shadow=0;fillColor=#ffffff;entryX=0;entryY=0.5;entryDx=0;entryDy=0;" parent="1" target="3h_Jgdluma76NgPUxrdL-120" edge="1">
          <mxGeometry width="50" height="50" relative="1" as="geometry">
            <mxPoint x="835" y="585" as="sourcePoint" />
            <mxPoint x="890" y="689.2499999999998" as="targetPoint" />
            <Array as="points">
              <mxPoint x="845" y="595" />
            </Array>
          </mxGeometry>
        </mxCell>
        <mxCell id="3h_Jgdluma76NgPUxrdL-129" value="" style="endArrow=classic;html=1;shadow=0;fillColor=#ffffff;entryX=0;entryY=0.5;entryDx=0;entryDy=0;" parent="1" target="3h_Jgdluma76NgPUxrdL-117" edge="1">
          <mxGeometry width="50" height="50" relative="1" as="geometry">
            <mxPoint x="835" y="585" as="sourcePoint" />
            <mxPoint x="887.5" y="560.9999999999998" as="targetPoint" />
          </mxGeometry>
        </mxCell>
        <mxCell id="3h_Jgdluma76NgPUxrdL-131" value="" style="endArrow=classic;html=1;shadow=0;fillColor=#ffffff;entryX=0;entryY=0.25;entryDx=0;entryDy=0;" parent="1" edge="1">
          <mxGeometry width="50" height="50" relative="1" as="geometry">
            <mxPoint x="970" y="528.25" as="sourcePoint" />
            <mxPoint x="1027.5" y="505" as="targetPoint" />
          </mxGeometry>
        </mxCell>
        <mxCell id="3h_Jgdluma76NgPUxrdL-132" value="" style="endArrow=classic;html=1;shadow=0;fillColor=#ffffff;entryX=0;entryY=0.5;entryDx=0;entryDy=0;" parent="1" target="3h_Jgdluma76NgPUxrdL-113" edge="1">
          <mxGeometry width="50" height="50" relative="1" as="geometry">
            <mxPoint x="970" y="653.25" as="sourcePoint" />
            <mxPoint x="1027.5" y="629.9999999999998" as="targetPoint" />
          </mxGeometry>
        </mxCell>
        <mxCell id="3h_Jgdluma76NgPUxrdL-133" value="" style="endArrow=classic;html=1;shadow=0;fillColor=#ffffff;entryX=0;entryY=0.5;entryDx=0;entryDy=0;" parent="1" target="3h_Jgdluma76NgPUxrdL-112" edge="1">
          <mxGeometry width="50" height="50" relative="1" as="geometry">
            <mxPoint x="972.5" y="475" as="sourcePoint" />
            <mxPoint x="1030" y="451.7499999999998" as="targetPoint" />
          </mxGeometry>
        </mxCell>
        <mxCell id="3h_Jgdluma76NgPUxrdL-134" value="" style="endArrow=classic;html=1;shadow=0;fillColor=#ffffff;entryX=0;entryY=0.5;entryDx=0;entryDy=0;" parent="1" target="3h_Jgdluma76NgPUxrdL-113" edge="1">
          <mxGeometry width="50" height="50" relative="1" as="geometry">
            <mxPoint x="970" y="596.25" as="sourcePoint" />
            <mxPoint x="1027.5" y="572.9999999999998" as="targetPoint" />
          </mxGeometry>
        </mxCell>
        <mxCell id="FYKCZdxoHwEPia956gJa-1" value="task&lt;br&gt;manager" style="rounded=0;whiteSpace=wrap;html=1;fillColor=#dae8fc;rotation=0;strokeColor=#6c8ebf;" parent="1" vertex="1">
          <mxGeometry x="20" y="750" width="67.5" height="213" as="geometry" />
        </mxCell>
        <mxCell id="FYKCZdxoHwEPia956gJa-2" value="" style="rounded=0;whiteSpace=wrap;html=1;fillColor=#fff2cc;strokeColor=#d6b656;" parent="1" vertex="1">
          <mxGeometry x="120" y="750" width="105" height="230" as="geometry" />
        </mxCell>
        <mxCell id="FYKCZdxoHwEPia956gJa-4" value="source" style="ellipse;whiteSpace=wrap;html=1;aspect=fixed;fillColor=#FFB570;strokeColor=none;" parent="1" vertex="1">
          <mxGeometry x="135" y="815" width="80" height="80" as="geometry" />
        </mxCell>
        <mxCell id="FYKCZdxoHwEPia956gJa-5" value="" style="rounded=0;whiteSpace=wrap;html=1;fillColor=#cce5ff;strokeColor=#36393d;" parent="1" vertex="1">
          <mxGeometry x="310" y="750" width="109" height="230" as="geometry" />
        </mxCell>
        <mxCell id="FYKCZdxoHwEPia956gJa-6" value="&lt;span&gt;intermediate Result&lt;/span&gt;" style="text;html=1;align=center;verticalAlign=middle;resizable=0;points=[];autosize=1;" parent="1" vertex="1">
          <mxGeometry x="314" y="730" width="120" height="20" as="geometry" />
        </mxCell>
        <mxCell id="FYKCZdxoHwEPia956gJa-7" style="edgeStyle=orthogonalEdgeStyle;rounded=0;orthogonalLoop=1;jettySize=auto;html=1;exitX=1;exitY=0.5;exitDx=0;exitDy=0;fillColor=#ffffff;entryX=0;entryY=0.5;entryDx=0;entryDy=0;" parent="1" source="FYKCZdxoHwEPia956gJa-9" target="FYKCZdxoHwEPia956gJa-17" edge="1">
          <mxGeometry relative="1" as="geometry">
            <mxPoint x="445" y="819.9999999999998" as="targetPoint" />
          </mxGeometry>
        </mxCell>
        <mxCell id="FYKCZdxoHwEPia956gJa-8" style="edgeStyle=orthogonalEdgeStyle;rounded=0;orthogonalLoop=1;jettySize=auto;html=1;exitX=1;exitY=0.5;exitDx=0;exitDy=0;entryX=0;entryY=0.5;entryDx=0;entryDy=0;fillColor=#ffffff;" parent="1" source="FYKCZdxoHwEPia956gJa-9" target="FYKCZdxoHwEPia956gJa-19" edge="1">
          <mxGeometry relative="1" as="geometry" />
        </mxCell>
        <mxCell id="FYKCZdxoHwEPia956gJa-9" value="Result sub&lt;br&gt;partion" style="rounded=0;whiteSpace=wrap;html=1;fillColor=#dae8fc;strokeColor=#6c8ebf;" parent="1" vertex="1">
          <mxGeometry x="329" y="785" width="75" height="50" as="geometry" />
        </mxCell>
        <mxCell id="FYKCZdxoHwEPia956gJa-11" value="" style="rounded=0;whiteSpace=wrap;html=1;fillColor=#fff2cc;strokeColor=#d6b656;" parent="1" vertex="1">
          <mxGeometry x="555" y="751.5" width="110" height="238.5" as="geometry" />
        </mxCell>
        <mxCell id="FYKCZdxoHwEPia956gJa-13" value="Flat Map" style="ellipse;whiteSpace=wrap;html=1;aspect=fixed;fillColor=#FFB570;strokeColor=none;" parent="1" vertex="1">
          <mxGeometry x="572" y="760" width="80" height="80" as="geometry" />
        </mxCell>
        <mxCell id="FYKCZdxoHwEPia956gJa-15" value="Flat Map" style="ellipse;whiteSpace=wrap;html=1;aspect=fixed;fillColor=#FFB570;strokeColor=none;" parent="1" vertex="1">
          <mxGeometry x="570" y="860" width="80" height="80" as="geometry" />
        </mxCell>
        <mxCell id="FYKCZdxoHwEPia956gJa-16" style="edgeStyle=orthogonalEdgeStyle;rounded=0;orthogonalLoop=1;jettySize=auto;html=1;exitX=1;exitY=0.5;exitDx=0;exitDy=0;entryX=0;entryY=0.5;entryDx=0;entryDy=0;fillColor=#ffffff;" parent="1" source="FYKCZdxoHwEPia956gJa-17" target="FYKCZdxoHwEPia956gJa-13" edge="1">
          <mxGeometry relative="1" as="geometry" />
        </mxCell>
        <mxCell id="FYKCZdxoHwEPia956gJa-17" value="inputchannel" style="rounded=0;whiteSpace=wrap;html=1;fillColor=#D5E8D4;strokeColor=none;" parent="1" vertex="1">
          <mxGeometry x="450" y="785" width="80" height="30" as="geometry" />
        </mxCell>
        <mxCell id="FYKCZdxoHwEPia956gJa-18" style="edgeStyle=orthogonalEdgeStyle;rounded=0;orthogonalLoop=1;jettySize=auto;html=1;exitX=1;exitY=0.5;exitDx=0;exitDy=0;fillColor=#ffffff;" parent="1" source="FYKCZdxoHwEPia956gJa-19" target="FYKCZdxoHwEPia956gJa-15" edge="1">
          <mxGeometry relative="1" as="geometry" />
        </mxCell>
        <mxCell id="FYKCZdxoHwEPia956gJa-19" value="inputchannel" style="rounded=0;whiteSpace=wrap;html=1;fillColor=#D5E8D4;strokeColor=none;" parent="1" vertex="1">
          <mxGeometry x="450" y="885" width="80" height="30" as="geometry" />
        </mxCell>
        <mxCell id="FYKCZdxoHwEPia956gJa-20" value="task" style="text;html=1;align=center;verticalAlign=middle;resizable=0;points=[];autosize=1;" parent="1" vertex="1">
          <mxGeometry x="152.5" y="730" width="40" height="20" as="geometry" />
        </mxCell>
        <mxCell id="FYKCZdxoHwEPia956gJa-26" value="" style="rounded=0;whiteSpace=wrap;html=1;fillColor=#fff2cc;strokeColor=#d6b656;" parent="1" vertex="1">
          <mxGeometry x="1095" y="745.75" width="120" height="250" as="geometry" />
        </mxCell>
        <mxCell id="FYKCZdxoHwEPia956gJa-27" value="&lt;span&gt;Keyd&amp;nbsp;&lt;/span&gt;&lt;br&gt;&lt;span&gt;Aggreation&lt;/span&gt;&lt;br&gt;&lt;span&gt;--&amp;gt; sink&lt;/span&gt;" style="ellipse;whiteSpace=wrap;html=1;aspect=fixed;fillColor=#ffcc99;strokeColor=none;" parent="1" vertex="1">
          <mxGeometry x="1115" y="770.75" width="80" height="80" as="geometry" />
        </mxCell>
        <mxCell id="FYKCZdxoHwEPia956gJa-28" value="&lt;span&gt;Keyd&amp;nbsp;&lt;/span&gt;&lt;br&gt;&lt;span&gt;Aggreation&lt;/span&gt;&lt;br&gt;&lt;span&gt;--&amp;gt; sink&lt;/span&gt;" style="ellipse;whiteSpace=wrap;html=1;aspect=fixed;fillColor=#ffcc99;strokeColor=none;" parent="1" vertex="1">
          <mxGeometry x="1115" y="875.75" width="80" height="80" as="geometry" />
        </mxCell>
        <mxCell id="FYKCZdxoHwEPia956gJa-29" value="input channel" style="rounded=0;whiteSpace=wrap;html=1;fillColor=#D5E8D4;strokeColor=none;" parent="1" vertex="1">
          <mxGeometry x="980" y="770.75" width="75" height="30" as="geometry" />
        </mxCell>
        <mxCell id="FYKCZdxoHwEPia956gJa-30" value="input channel" style="rounded=0;whiteSpace=wrap;html=1;fillColor=#D5E8D4;strokeColor=none;" parent="1" vertex="1">
          <mxGeometry x="975" y="825" width="80" height="30" as="geometry" />
        </mxCell>
        <mxCell id="FYKCZdxoHwEPia956gJa-31" value="&lt;span&gt;input channel&lt;/span&gt;" style="rounded=0;whiteSpace=wrap;html=1;fillColor=#D5E8D4;strokeColor=none;" parent="1" vertex="1">
          <mxGeometry x="975" y="890" width="80" height="30" as="geometry" />
        </mxCell>
        <mxCell id="FYKCZdxoHwEPia956gJa-32" value="&lt;span&gt;input channel&lt;/span&gt;" style="rounded=0;whiteSpace=wrap;html=1;fillColor=#D5E8D4;strokeColor=none;" parent="1" vertex="1">
          <mxGeometry x="975" y="944.25" width="80" height="30" as="geometry" />
        </mxCell>
        <mxCell id="FYKCZdxoHwEPia956gJa-33" value="" style="endArrow=classic;html=1;shadow=0;fillColor=#ffffff;entryX=0;entryY=0.25;entryDx=0;entryDy=0;exitX=1;exitY=0.5;exitDx=0;exitDy=0;" parent="1" source="FYKCZdxoHwEPia956gJa-51" target="FYKCZdxoHwEPia956gJa-29" edge="1">
          <mxGeometry width="50" height="50" relative="1" as="geometry">
            <mxPoint x="842.5" y="801.5" as="sourcePoint" />
            <mxPoint x="892.5" y="751.5" as="targetPoint" />
          </mxGeometry>
        </mxCell>
        <mxCell id="FYKCZdxoHwEPia956gJa-34" value="" style="endArrow=classic;html=1;shadow=0;fillColor=#ffffff;entryX=0;entryY=0.5;entryDx=0;entryDy=0;exitX=1;exitY=0.5;exitDx=0;exitDy=0;" parent="1" source="FYKCZdxoHwEPia956gJa-52" target="FYKCZdxoHwEPia956gJa-31" edge="1">
          <mxGeometry width="50" height="50" relative="1" as="geometry">
            <mxPoint x="830" y="801" as="sourcePoint" />
            <mxPoint x="892.5" y="850.7499999999998" as="targetPoint" />
            <Array as="points" />
          </mxGeometry>
        </mxCell>
        <mxCell id="FYKCZdxoHwEPia956gJa-36" value="" style="endArrow=classic;html=1;shadow=0;fillColor=#ffffff;entryX=0;entryY=0.5;entryDx=0;entryDy=0;exitX=1;exitY=0.25;exitDx=0;exitDy=0;" parent="1" source="FYKCZdxoHwEPia956gJa-56" target="FYKCZdxoHwEPia956gJa-30" edge="1">
          <mxGeometry width="50" height="50" relative="1" as="geometry">
            <mxPoint x="840" y="895" as="sourcePoint" />
            <mxPoint x="892.5" y="870.9999999999998" as="targetPoint" />
          </mxGeometry>
        </mxCell>
        <mxCell id="FYKCZdxoHwEPia956gJa-37" value="" style="endArrow=classic;html=1;shadow=0;fillColor=#ffffff;entryX=0;entryY=0.25;entryDx=0;entryDy=0;" parent="1" edge="1">
          <mxGeometry width="50" height="50" relative="1" as="geometry">
            <mxPoint x="1055" y="838.2499999999998" as="sourcePoint" />
            <mxPoint x="1112.5" y="815" as="targetPoint" />
          </mxGeometry>
        </mxCell>
        <mxCell id="FYKCZdxoHwEPia956gJa-38" value="" style="endArrow=classic;html=1;shadow=0;fillColor=#ffffff;entryX=0;entryY=0.5;entryDx=0;entryDy=0;" parent="1" target="FYKCZdxoHwEPia956gJa-28" edge="1">
          <mxGeometry width="50" height="50" relative="1" as="geometry">
            <mxPoint x="1055" y="963.2499999999998" as="sourcePoint" />
            <mxPoint x="1112.5" y="939.9999999999998" as="targetPoint" />
          </mxGeometry>
        </mxCell>
        <mxCell id="FYKCZdxoHwEPia956gJa-39" value="" style="endArrow=classic;html=1;shadow=0;fillColor=#ffffff;entryX=0;entryY=0.5;entryDx=0;entryDy=0;" parent="1" target="FYKCZdxoHwEPia956gJa-27" edge="1">
          <mxGeometry width="50" height="50" relative="1" as="geometry">
            <mxPoint x="1057.5" y="785" as="sourcePoint" />
            <mxPoint x="1115" y="761.7499999999998" as="targetPoint" />
          </mxGeometry>
        </mxCell>
        <mxCell id="FYKCZdxoHwEPia956gJa-40" value="" style="endArrow=classic;html=1;shadow=0;fillColor=#ffffff;entryX=0;entryY=0.5;entryDx=0;entryDy=0;" parent="1" target="FYKCZdxoHwEPia956gJa-28" edge="1">
          <mxGeometry width="50" height="50" relative="1" as="geometry">
            <mxPoint x="1055" y="906.25" as="sourcePoint" />
            <mxPoint x="1112.5" y="882.9999999999998" as="targetPoint" />
          </mxGeometry>
        </mxCell>
        <mxCell id="FYKCZdxoHwEPia956gJa-41" value="&lt;span&gt;Result sub&lt;/span&gt;&lt;br&gt;&lt;span&gt;partion&lt;/span&gt;" style="rounded=0;whiteSpace=wrap;html=1;fillColor=#dae8fc;strokeColor=#6c8ebf;" parent="1" vertex="1">
          <mxGeometry x="336.5" y="885" width="75" height="50" as="geometry" />
        </mxCell>
        <mxCell id="FYKCZdxoHwEPia956gJa-42" value="input gate" style="text;html=1;align=center;verticalAlign=middle;resizable=0;points=[];autosize=1;" parent="1" vertex="1">
          <mxGeometry x="445" y="760" width="70" height="20" as="geometry" />
        </mxCell>
        <mxCell id="FYKCZdxoHwEPia956gJa-43" value="task" style="text;html=1;align=center;verticalAlign=middle;resizable=0;points=[];autosize=1;" parent="1" vertex="1">
          <mxGeometry x="587" y="720" width="40" height="20" as="geometry" />
        </mxCell>
        <mxCell id="FYKCZdxoHwEPia956gJa-49" value="" style="rounded=0;whiteSpace=wrap;html=1;fillColor=#cce5ff;strokeColor=#36393d;" parent="1" vertex="1">
          <mxGeometry x="705" y="745" width="100" height="140" as="geometry" />
        </mxCell>
        <mxCell id="FYKCZdxoHwEPia956gJa-50" value="Result Partion" style="text;html=1;align=center;verticalAlign=middle;resizable=0;points=[];autosize=1;" parent="1" vertex="1">
          <mxGeometry x="705" y="725" width="90" height="20" as="geometry" />
        </mxCell>
        <mxCell id="FYKCZdxoHwEPia956gJa-51" value="Result sub&amp;nbsp;&lt;br&gt;partion" style="rounded=0;whiteSpace=wrap;html=1;fillColor=#dae8fc;strokeColor=#6c8ebf;" parent="1" vertex="1">
          <mxGeometry x="715" y="755" width="75" height="50" as="geometry" />
        </mxCell>
        <mxCell id="FYKCZdxoHwEPia956gJa-52" value="&amp;nbsp;Result sub&lt;br&gt;partion" style="rounded=0;whiteSpace=wrap;html=1;fillColor=#dae8fc;strokeColor=#6c8ebf;" parent="1" vertex="1">
          <mxGeometry x="720" y="825" width="75" height="50" as="geometry" />
        </mxCell>
        <mxCell id="FYKCZdxoHwEPia956gJa-54" value="Result sub&amp;nbsp;&lt;br&gt;partion" style="rounded=0;whiteSpace=wrap;html=1;fillColor=#dae8fc;strokeColor=#6c8ebf;" parent="1" vertex="1">
          <mxGeometry x="720" y="910" width="75" height="50" as="geometry" />
        </mxCell>
        <mxCell id="FYKCZdxoHwEPia956gJa-55" value="&amp;nbsp;Result sub&lt;br&gt;partion" style="rounded=0;whiteSpace=wrap;html=1;fillColor=#dae8fc;strokeColor=#6c8ebf;" parent="1" vertex="1">
          <mxGeometry x="725" y="980" width="75" height="50" as="geometry" />
        </mxCell>
        <mxCell id="FYKCZdxoHwEPia956gJa-56" value="" style="rounded=0;whiteSpace=wrap;html=1;fillColor=#cce5ff;strokeColor=#36393d;" parent="1" vertex="1">
          <mxGeometry x="707.5" y="900" width="100" height="140" as="geometry" />
        </mxCell>
        <mxCell id="FYKCZdxoHwEPia956gJa-57" value="Result sub&amp;nbsp;&lt;br&gt;partion" style="rounded=0;whiteSpace=wrap;html=1;fillColor=#dae8fc;strokeColor=#6c8ebf;" parent="1" vertex="1">
          <mxGeometry x="720" y="915" width="75" height="50" as="geometry" />
        </mxCell>
        <mxCell id="FYKCZdxoHwEPia956gJa-58" value="Result sub&amp;nbsp;&lt;br&gt;partion" style="rounded=0;whiteSpace=wrap;html=1;fillColor=#dae8fc;strokeColor=#6c8ebf;" parent="1" vertex="1">
          <mxGeometry x="725" y="974.25" width="75" height="50" as="geometry" />
        </mxCell>
        <mxCell id="FYKCZdxoHwEPia956gJa-59" value="" style="endArrow=classic;html=1;shadow=0;fillColor=#ffffff;entryX=0;entryY=0.5;entryDx=0;entryDy=0;exitX=1;exitY=0.25;exitDx=0;exitDy=0;" parent="1" source="FYKCZdxoHwEPia956gJa-58" target="FYKCZdxoHwEPia956gJa-32" edge="1">
          <mxGeometry width="50" height="50" relative="1" as="geometry">
            <mxPoint x="795" y="1015" as="sourcePoint" />
            <mxPoint x="962.5" y="920" as="targetPoint" />
          </mxGeometry>
        </mxCell>
        <mxCell id="FYKCZdxoHwEPia956gJa-60" value="" style="shape=flexArrow;endArrow=classic;html=1;fillColor=#f5f5f5;strokeColor=#666666;" parent="1" edge="1">
          <mxGeometry width="50" height="50" relative="1" as="geometry">
            <mxPoint x="270" y="390" as="sourcePoint" />
            <mxPoint x="270" y="457.5" as="targetPoint" />
            <Array as="points">
              <mxPoint x="270" y="410" />
            </Array>
          </mxGeometry>
        </mxCell>
        <mxCell id="FYKCZdxoHwEPia956gJa-61" value="" style="shape=flexArrow;endArrow=classic;html=1;fillColor=#f5f5f5;strokeColor=#666666;" parent="1" edge="1">
          <mxGeometry width="50" height="50" relative="1" as="geometry">
            <mxPoint x="280" y="680" as="sourcePoint" />
            <mxPoint x="280" y="747.5" as="targetPoint" />
            <Array as="points">
              <mxPoint x="280" y="700" />
            </Array>
          </mxGeometry>
        </mxCell>
        <mxCell id="FYKCZdxoHwEPia956gJa-62" value="任务发放" style="text;html=1;align=center;verticalAlign=middle;resizable=0;points=[];autosize=1;" parent="1" vertex="1">
          <mxGeometry x="210" y="690" width="60" height="20" as="geometry" />
        </mxCell>
        <mxCell id="FYKCZdxoHwEPia956gJa-63" value="客户端提交" style="text;html=1;align=center;verticalAlign=middle;resizable=0;points=[];autosize=1;" parent="1" vertex="1">
          <mxGeometry x="272.5" y="395" width="80" height="20" as="geometry" />
        </mxCell>
        <mxCell id="cQ53wtJj44WLavCWwvgX-2" style="edgeStyle=orthogonalEdgeStyle;rounded=0;orthogonalLoop=1;jettySize=auto;html=1;exitX=1;exitY=0.5;exitDx=0;exitDy=0;fillColor=#ffffff;entryX=0;entryY=0.5;entryDx=0;entryDy=0;" edge="1" parent="1" target="FYKCZdxoHwEPia956gJa-9">
          <mxGeometry relative="1" as="geometry">
            <mxPoint x="224.99999999999" y="865.0000000000002" as="sourcePoint" />
            <mxPoint x="300" y="880" as="targetPoint" />
            <Array as="points">
              <mxPoint x="310" y="865" />
              <mxPoint x="310" y="810" />
            </Array>
          </mxGeometry>
        </mxCell>
        <mxCell id="cQ53wtJj44WLavCWwvgX-3" style="edgeStyle=orthogonalEdgeStyle;rounded=0;orthogonalLoop=1;jettySize=auto;html=1;exitX=1;exitY=0.5;exitDx=0;exitDy=0;fillColor=#ffffff;" edge="1" parent="1" source="FYKCZdxoHwEPia956gJa-2">
          <mxGeometry relative="1" as="geometry">
            <mxPoint x="224.99999999999" y="930.0000000000002" as="sourcePoint" />
            <mxPoint x="340" y="920" as="targetPoint" />
            <Array as="points">
              <mxPoint x="310" y="865" />
              <mxPoint x="310" y="920" />
            </Array>
          </mxGeometry>
        </mxCell>
      </root>
    </mxGraphModel>
  </diagram>
</mxfile>
